<svg xmlns="http://www.w3.org/2000/svg" xmlns:xlink="http://www.w3.org/1999/xlink" width="169" height="111" viewBox="0 0 169 111">
  <defs>
    <clipPath id="clip-path">
      <rect id="Rectángulo_457000" data-name="Rectángulo 457000" width="116.723" height="95.721" fill="none"/>
    </clipPath>
  </defs>
  <g id="Grupo_1205151" data-name="Grupo 1205151" transform="translate(-1121.422 -1019)">
    <rect id="Rectángulo_455283" data-name="Rectángulo 455283" width="169" height="111" rx="19" transform="translate(1121.422 1019)" fill="#cad6fe"/>
    <g id="Grupo_1205877" data-name="Grupo 1205877" transform="translate(1145.088 1028.667)">
      <g id="Grupo_1205876" data-name="Grupo 1205876" clip-path="url(#clip-path)">
        <path id="Trazado_1263109" data-name="Trazado 1263109" d="M61.293,43.274c-.935.288-.384,4.987-.456,5.994,23.332,5.529,34.122,33.144,19.7,52.848-13.38,18.278-40.6,18.2-54.2.279l-18.668-.126c-2.477-.572-1.382-3.62-.407-3.62H23.873A30.688,30.688,0,0,1,20.5,88.932L1.627,88.844a2,2,0,0,1,.264-3.955H19.846c-.682-3.31.092-6.779.671-10.068H7.6c-1.215,0-2.352-3.043-.533-3.545,3.694-1.018,10.132.59,14.126-.314a76.524,76.524,0,0,1,6.04-10.237H4.24c-.842,0-2.234-3.26.009-3.682l26.772-.077a35.492,35.492,0,0,1,14.958-7.7c-.031-.886.4-6-.46-6H38.807c-2.672,0-2.4-7.839-2.189-9.573a3.338,3.338,0,0,1,3.175-3.2c8.55.634,18.128-.769,26.55.006a3.2,3.2,0,0,1,3.1,2.268,43.936,43.936,0,0,1,.079,7.656c-.112.957-1.278,2.845-2.189,2.845-1.279,0-5.19-.262-6.041,0m4.531-9.061H40.317v5.37H65.823ZM57.1,43.274H49.714v5.37H57.1Zm-8.055,9.4c-11.668.5-22.808,12.021-25.014,23.145-6,30.269,30.849,49.126,51.527,26.189l.336-.336c.1-.118.235-.215.336-.336C93.8,80.221,77.856,52,50.884,52.33c-.568.007-1.491-.215-1.841.341" transform="translate(0 -20.108)" fill="#040506"/>
        <path id="Trazado_1263110" data-name="Trazado 1263110" d="M228.653,29.207c-2.9.507-5.669-.692-6.049-3.852-.8-6.68.6-14.946.029-21.8A4.365,4.365,0,0,1,226.167.04L260.713,0a4.1,4.1,0,0,1,3.524,3.524c-.532,7.006.675,14.953.007,21.84-.172,1.77-1.066,3.385-2.946,3.766-5.266,1.067-13.451-.651-19.037.093l-10.91,7.552c-.712.682-2.7-.5-2.7-1.024ZM260.536,3.7H226.807a3.368,3.368,0,0,0-.5.5V25.515c5.61-.405,6.307.051,6.212,5.709,1.451-.452,7.6-5.709,8.387-5.709h19.633Z" transform="translate(-147.728)" fill="#040506"/>
        <path id="Trazado_1263111" data-name="Trazado 1263111" d="M95.321,96.976c20.183-.862,35.055,19.833,30.783,39-.78,3.5-2.509,6.319-3.6,9.658-.1.121-.233.217-.336.336s-.23.218-.336.336c-20.678,22.938-57.529,4.08-51.527-26.189C72.512,109,83.652,97.474,95.321,96.976m1.273,4.461c-15.5,1.587-25.437,17.548-21.079,32.293,5.69,19.251,30.545,24.254,43.47,8.892,14.715-17.489.212-43.5-22.391-41.185" transform="translate(-46.278 -64.413)" fill="#5dd2e4"/>
        <path id="Trazado_1263112" data-name="Trazado 1263112" d="M173.317,144.94c1.09-3.338,2.819-6.16,3.6-9.658,4.272-19.172-10.6-39.867-30.783-39.005.35-.557,1.274-.334,1.841-.341,26.972-.334,42.911,27.891,25.343,49" transform="translate(-97.09 -63.714)" fill="#c1fbff"/>
        <rect id="Rectángulo_456998" data-name="Rectángulo 456998" width="25.506" height="5.37" transform="translate(40.317 14.105)" fill="#5dd2e4"/>
        <rect id="Rectángulo_456999" data-name="Rectángulo 456999" width="7.383" height="5.37" transform="translate(49.714 23.166)" fill="#ebcc30"/>
        <path id="Trazado_1263113" data-name="Trazado 1263113" d="M225.133,243.364c.106-.118.235-.219.336-.336Z" transform="translate(-149.577 -161.467)" fill="#41a1ef"/>
        <path id="Trazado_1263114" data-name="Trazado 1263114" d="M268.365,11.028V32.842H248.732c-.784,0-6.936,5.257-8.387,5.709.095-5.657-.6-6.113-6.212-5.709V11.531a3.368,3.368,0,0,1,.5-.5Zm-28.288,2.42c-1.68.482-1.859,3.654.249,3.636l22.159-.022c2.267-.845,1.781-3.578-.658-3.691Zm-.829,9.917c.37.371,1.23.386,1.751.429a148.288,148.288,0,0,0,20.828-.007c2.864-.336,2.864-3.368,0-3.7-6.532-.766-14.477.6-21.167-.011a2.028,2.028,0,0,0-1.412,3.294m0,3.851a2.028,2.028,0,0,0,1.412,3.294c6.689-.608,14.635.754,21.166-.012,2.738-.322,2.87-3.365,0-3.7A148.135,148.135,0,0,0,241,26.788c-.52.043-1.38.058-1.751.429" transform="translate(-155.557 -7.327)" fill="#feea89"/>
        <path id="Trazado_1263115" data-name="Trazado 1263115" d="M106.158,110.035c22.6-2.314,37.106,23.7,22.391,41.185-12.925,15.362-37.781,10.359-43.47-8.892-4.357-14.745,5.583-30.706,21.079-32.293m-.348,3.679c-8.058,1.013-15.7,8.174-17.541,16.02-4.251,18.115,14.549,33.23,31.053,24.34,21-11.313,10.788-43.414-13.512-40.36" transform="translate(-55.842 -73.011)" fill="#040506"/>
        <path id="Trazado_1263116" data-name="Trazado 1263116" d="M249.278,18.086l21.75-.077c2.439.113,2.926,2.847.658,3.691l-22.158.022c-2.109.018-1.929-3.154-.249-3.636" transform="translate(-164.758 -11.965)" fill="#040506"/>
        <path id="Trazado_1263117" data-name="Trazado 1263117" d="M248.457,40.816a2.028,2.028,0,0,1,1.412-3.294c6.69.608,14.635-.754,21.167.011,2.864.336,2.864,3.368,0,3.7a148.235,148.235,0,0,1-20.828.007c-.521-.043-1.38-.058-1.751-.429" transform="translate(-164.767 -24.778)" fill="#040506"/>
        <path id="Trazado_1263118" data-name="Trazado 1263118" d="M248.457,57.7c.371-.371,1.23-.386,1.751-.429a148.133,148.133,0,0,1,20.828.007c2.869.338,2.738,3.382,0,3.7-6.531.766-14.477-.6-21.166.012a2.028,2.028,0,0,1-1.412-3.294" transform="translate(-164.767 -37.805)" fill="#040506"/>
        <path id="Trazado_1263119" data-name="Trazado 1263119" d="M112.958,120.88c24.3-3.054,34.516,29.047,13.512,40.361-16.5,8.889-35.3-6.226-31.052-24.34,1.841-7.846,9.482-15.007,17.54-16.02m5.116,18.2V127.339c0-.85-3.082-1.7-3.62.743-.546,2.487.533,11.943-.235,13.19-1.305,1.308-11.379,4.955-7.409,7.4,2.256,1.388,6.054-3.066,7.8-3.322.48-.07,1.339,1.175,2.8.45,1.066-.53.414-1.864.739-2.45.142-.256,1.757-.75,1.873-1.965.126-1.319-1.819-1.91-1.943-2.3" transform="translate(-62.99 -80.177)" fill="#edf2f5"/>
        <path id="Trazado_1263120" data-name="Trazado 1263120" d="M140.011,150.562c.124.388,2.069.979,1.943,2.3-.115,1.214-1.73,1.709-1.873,1.965-.325.586.327,1.919-.739,2.45-1.456.725-2.315-.521-2.8-.45-1.745.256-5.544,4.711-7.8,3.322-3.97-2.443,6.1-6.09,7.409-7.4.768-1.247-.312-10.7.235-13.19.538-2.446,3.62-1.593,3.62-.743Z" transform="translate(-84.928 -91.654)" fill="#040506"/>
      </g>
    </g>
  </g>
</svg>
