<svg xmlns="http://www.w3.org/2000/svg" xmlns:xlink="http://www.w3.org/1999/xlink" width="84" height="84" viewBox="0 0 84 84">
  <defs>
    <clipPath id="clip-path">
      <rect id="Rectángulo_456388" data-name="Rectángulo 456388" width="68" height="68" fill="#302c9e"/>
    </clipPath>
  </defs>
  <g id="Grupo_1205288" data-name="Grupo 1205288" transform="translate(-185.422 -1046.101)">
    <g id="Grupo_1205349" data-name="Grupo 1205349">
      <rect id="Rectángulo_455472" data-name="Rectángulo 455472" width="84" height="84" rx="12" transform="translate(185.422 1046.101)" fill="#feea89"/>
      <g id="Grupo_1205348" data-name="Grupo 1205348" transform="translate(193.422 1054.101)">
        <g id="Grupo_1205347" data-name="Grupo 1205347" clip-path="url(#clip-path)">
          <path id="Trazado_1261546" data-name="Trazado 1261546" d="M77.123,71.862c-.843.865-1.292,2.2-2.018,3.159a9.011,9.011,0,0,1-6.58,3.471l3.45,5.786,3.165-4.552.958-.887,5.825.664-3.832-6.633,1.7-1.271,5.264,8.728a1.3,1.3,0,0,1-.5,1.714c-.979.438-6.106-1.047-7.57-.888-.508.17-3.258,5.131-4.025,5.934-.659.69-1.339.76-1.971,0l-5.2-8.523c-2.133.475-3.61,2.16-5.887,2.37a14.267,14.267,0,0,1-3.165-.1c-1.9-.346-3.365-2.054-5.28-2.241l-5.093,8.495a1.174,1.174,0,0,1-1.885.116l-4.111-6.05c-.744-.249-5.606.935-6.9.975-1.258.039-1.486-.676-1.176-1.8l5.764-9.837a9.022,9.022,0,0,1-4.432-6.335c-.107-.926.06-1.895-.025-2.817-.246-2.643-2.26-4.214-2.579-6.962-.5-4.3,2.253-5.61,2.579-9.082.275-2.937-.245-4.335,1.835-6.894,1.458-1.794,3.3-2.135,4.662-3.458,2.082-2.027,1.955-4.435,5.411-5.957,2.536-1.117,4.339-.36,6.533-.979,3.354-.946,3.6-2.871,8.206-2.246,2.039.276,3.4,1.824,5.217,2.294,2.576.666,4.305-.356,7.178,1.349,2.769,1.643,2.868,3.935,4.711,5.642,1.377,1.276,3.133,1.572,4.562,3.355,2.051,2.56,1.563,3.968,1.835,6.895.317,3.417,3.013,4.77,2.61,8.911-.275,2.832-2.36,4.45-2.61,7.133s.215,4.3-1.628,6.7c-1.517,1.972-3.579,2.368-5,3.827M57.307,27.99c-1.527.241-3.044,1.735-4.731,2.172-2.233.578-4.117-.12-6.362.946-2.548,1.209-2.86,3.926-4.889,5.667-1.158.994-2.833,1.529-3.869,2.628-2.382,2.525-1.157,4.832-1.873,7.668-.6,2.39-2.524,3.747-2.391,6.556.113,2.382,1.86,3.838,2.391,5.937.592,2.342-.234,4.154,1.037,6.475C37.81,68.214,39.4,68.31,41.1,69.676c2.562,2.053,2.534,5.295,6.269,6.318,1.61.441,3.035.074,4.561.312,3.028.472,3.847,2.821,7.764,2.389,2.012-.222,3.527-1.977,5.572-2.346,1.64-.3,3.173.116,4.876-.4,3.561-1.082,3.524-4.056,5.89-6.087,1.189-1.021,2.8-1.481,3.865-2.631,2.4-2.6,1.147-4.775,1.877-7.665.6-2.383,2.526-3.706,2.391-6.556-.111-2.333-1.8-3.725-2.353-5.772-.641-2.375.211-4.3-1.074-6.64-1.155-2.1-2.818-2.3-4.483-3.637-2.651-2.124-2.444-5.245-6.309-6.277-1.652-.441-2.969-.07-4.516-.357-3.262-.606-4.1-2.97-8.124-2.333m-8.474,50.5a9.017,9.017,0,0,1-6.491-3.357C41.5,74.057,41.127,72.66,40,71.794L35.434,79.5l5.825-.664c1.73,1.491,2.7,3.7,4.02,5.538Z" transform="translate(-24.679 -20.433)" fill="#302c9e"/>
          <path id="Trazado_1261547" data-name="Trazado 1261547" d="M20.519,19l8.132,8.118c.192.373-1.178,1.94-1.642,1.432L19,20.519Z" transform="translate(-15.143 -15.143)" fill="#302c9e"/>
          <path id="Trazado_1261548" data-name="Trazado 1261548" d="M276.483,19,278,20.519l-8.009,8.031c-.464.508-1.834-1.059-1.642-1.432Z" transform="translate(-213.859 -15.143)" fill="#302c9e"/>
          <rect id="Rectángulo_456382" data-name="Rectángulo 456382" width="7.89" height="2.148" transform="translate(0 66.481) rotate(-45)" fill="#302c9e"/>
          <rect id="Rectángulo_456383" data-name="Rectángulo 456383" width="2.148" height="7.89" transform="translate(60.902 62.421) rotate(-45)" fill="#302c9e"/>
          <path id="Trazado_1261549" data-name="Trazado 1261549" d="M8.881,218.9c0,.484,1.021,1.576.636,1.9l-6.088,2.868c-.64.325-1.3-1.728-1.139-1.957,1.852-.593,4.021-2.206,5.8-2.738.226-.068.6-.194.791-.071" transform="translate(-1.804 -174.422)" fill="#302c9e"/>
          <path id="Trazado_1261550" data-name="Trazado 1261550" d="M297.266,218.9c.2-.123.565,0,.791.071,1.78.532,3.949,2.145,5.8,2.738.164.229-.5,2.282-1.139,1.957L296.63,220.8c-.385-.321.631-1.414.636-1.9" transform="translate(-236.343 -174.422)" fill="#302c9e"/>
          <path id="Trazado_1261551" data-name="Trazado 1261551" d="M8.691,96.958,2,94.107l.931-1.994,6.555,2.913Z" transform="translate(-1.592 -73.414)" fill="#302c9e"/>
          <path id="Trazado_1261552" data-name="Trazado 1261552" d="M303.577,94.119l-6.6,2.85-.889-1.931,6.414-2.908c.516-.074,1.146,1.889,1.072,1.988" transform="translate(-235.982 -73.426)" fill="#302c9e"/>
          <path id="Trazado_1261553" data-name="Trazado 1261553" d="M94.107,2l2.041,4.777c-.011.6-1.433.916-1.916,1.116L92.113,2.929Z" transform="translate(-73.413 -1.592)" fill="#302c9e"/>
          <path id="Trazado_1261554" data-name="Trazado 1261554" d="M224.992,7.832c-.108.081-2.086-.571-2.022-1.1l2.147-4.789L227,2.882Z" transform="translate(-177.704 -1.545)" fill="#302c9e"/>
          <rect id="Rectángulo_456384" data-name="Rectángulo 456384" width="2.233" height="4.466" transform="translate(32.883 62.725)" fill="#302c9e"/>
          <rect id="Rectángulo_456385" data-name="Rectángulo 456385" width="3.248" height="2.233" transform="translate(0.808 32.883)" fill="#302c9e"/>
          <rect id="Rectángulo_456386" data-name="Rectángulo 456386" width="3.248" height="2.233" transform="translate(63.944 32.883)" fill="#302c9e"/>
          <path id="Trazado_1261555" data-name="Trazado 1261555" d="M1.519,0,3.636,2.156,2.3,3.636,0,1.519Z" transform="translate(0 0)" fill="#302c9e"/>
          <path id="Trazado_1261556" data-name="Trazado 1261556" d="M319.171,0l1.519,1.519-2.3,2.117-1.333-1.48Z" transform="translate(-252.69 0)" fill="#302c9e"/>
          <rect id="Rectángulo_456387" data-name="Rectángulo 456387" width="2.235" height="2.235" transform="translate(32.882 0.807)" fill="#302c9e"/>
          <path id="Trazado_1261557" data-name="Trazado 1261557" d="M99.755,94.166a21.085,21.085,0,0,1-31.966-2.707c-5.322-7.331-5.28-17.957.491-25.025l1.667,1.308c-7.276,9.5-3.8,23.748,7.149,28.62a18.851,18.851,0,0,0,25.52-23.49C98.023,59.753,80.828,56.148,71.3,66.218L69.785,64.7a20.4,20.4,0,0,1,12.3-6.37C101.929,55.7,114,80,99.755,94.166" transform="translate(-50.905 -46.331)" fill="#302c9e"/>
          <path id="Trazado_1261558" data-name="Trazado 1261558" d="M117.246,95.173h5.38c1.086,0,2.705,1.683,2.894,2.789.4,2.342-.71,2.672-.953,4.227-.459,2.93,1.053,7.239-1.423,9.539A7.067,7.067,0,0,1,121,112.835H116.84V110.6H120.8a4.017,4.017,0,0,0,1.118-.912c.9-1.353.168-6.026.4-7.924.143-1.169,1.256-1.972,1.019-3.236a1.779,1.779,0,0,0-1.12-1.12c-1.405-.268-6.32.378-7.115-.192-1.611-1.154,2.715-6.664,0-7.122-1.831-.31-2.187,2.433-3.047,3.643-.725,1.02-2.118,1.954-2.931,2.956V110.6h5.481v2.233H97.656a2.324,2.324,0,0,1-.609-.406l-.111-16.351a.889.889,0,0,1,.294-.721c.782-.616,8.564.119,10.128-.225a33.217,33.217,0,0,0,3.074-3.016c1.145-1.611,1.276-4.055,3.86-4.261,4.522-.359,4.613,4.279,2.954,7.318m-10.353,2.233H99.178v13.2h7.714Z" transform="translate(-77.257 -70.004)" fill="#302c9e"/>
          <path id="Trazado_1261559" data-name="Trazado 1261559" d="M121.111,173.366c1.572,1.575-1.014,3.957-2.517,2.316-1.445-1.578,1.05-3.785,2.517-2.316" transform="translate(-94.172 -137.787)" fill="#302c9e"/>
        </g>
      </g>
    </g>
  </g>
</svg>
