<svg xmlns="http://www.w3.org/2000/svg" xmlns:xlink="http://www.w3.org/1999/xlink" width="500" height="285" viewBox="0 0 500 285">
  <defs>
    <clipPath id="clip-path">
      <rect id="Rectángulo_457033" data-name="Rectángulo 457033" width="500" height="285" transform="translate(913.711 2521)" fill="#fff" stroke="#707070" stroke-width="1"/>
    </clipPath>
    <clipPath id="clip-path-2">
      <rect id="Rectángulo_457032" data-name="Rectángulo 457032" width="441.318" height="402.118" transform="translate(-58.393)" fill="none"/>
    </clipPath>
    <clipPath id="clip-path-3">
      <rect id="Rectángulo_457031" data-name="Rectángulo 457031" width="500" height="402.118" transform="translate(-58.393)" fill="none"/>
    </clipPath>
    <clipPath id="clip-path-4">
      <rect id="Rectángulo_457023" data-name="Rectángulo 457023" width="42.971" height="21.158" fill="none"/>
    </clipPath>
    <clipPath id="clip-path-5">
      <rect id="Rectángulo_457024" data-name="Rectángulo 457024" width="42.97" height="21.158" fill="none"/>
    </clipPath>
    <clipPath id="clip-path-6">
      <rect id="Rectángulo_457026" data-name="Rectángulo 457026" width="5.078" height="3.331" fill="none"/>
    </clipPath>
    <clipPath id="clip-path-7">
      <rect id="Rectángulo_457027" data-name="Rectángulo 457027" width="28.813" height="88.239" fill="none"/>
    </clipPath>
    <clipPath id="clip-path-8">
      <rect id="Rectángulo_457029" data-name="Rectángulo 457029" width="5.079" height="3.331" fill="none"/>
    </clipPath>
    <clipPath id="clip-path-9">
      <rect id="Rectángulo_457030" data-name="Rectángulo 457030" width="55.908" height="64.353" fill="none"/>
    </clipPath>
  </defs>
  <g id="Enmascarar_grupo_1119250" data-name="Enmascarar grupo 1119250" transform="translate(-913.711 -2521)" clip-path="url(#clip-path)">
    <g id="Grupo_1205253" data-name="Grupo 1205253" transform="translate(728.289 1880.549)">
      <rect id="Rectángulo_455675" data-name="Rectángulo 455675" width="499.711" height="285.451" rx="19" transform="translate(185.711 640)" fill="#fff7d9"/>
      <g id="Grupo_1205921" data-name="Grupo 1205921" transform="translate(244.104 640)">
        <g id="Grupo_1205920" data-name="Grupo 1205920" transform="translate(19 -11)" clip-path="url(#clip-path-2)">
          <g id="Grupo_1205919" data-name="Grupo 1205919">
            <g id="Grupo_1205918" data-name="Grupo 1205918" clip-path="url(#clip-path-3)">
              <line id="Línea_3555" data-name="Línea 3555" y1="1.824" x2="1.832" transform="translate(0.304 162)" fill="none" stroke="#32338c" stroke-miterlimit="10" stroke-width="1"/>
              <line id="Línea_3556" data-name="Línea 3556" y1="65.979" x2="66.262" transform="translate(5.922 92.251)" fill="none" stroke="#32338c" stroke-miterlimit="10" stroke-width="1" stroke-dasharray="6.201 6.201"/>
              <path id="Trazado_1263192" data-name="Trazado 1263192" d="M85.972,104.584,87.8,102.76l1.845,1.81" transform="translate(-11.895 -14.218)" fill="none" stroke="#32338c" stroke-miterlimit="10" stroke-width="1"/>
              <line id="Línea_3557" data-name="Línea 3557" x2="60.306" y2="59.162" transform="translate(81.645 94.169)" fill="none" stroke="#32338c" stroke-miterlimit="10" stroke-width="1" stroke-dasharray="6.326 6.326"/>
              <path id="Trazado_1263193" data-name="Trazado 1263193" d="M167,180.152l1.846,1.81,1.742-1.909" transform="translate(-23.106 -24.912)" fill="none" stroke="#32338c" stroke-miterlimit="10" stroke-width="1"/>
              <line id="Línea_3558" data-name="Línea 3558" y1="62.167" x2="56.755" transform="translate(151.146 88.963)" fill="none" stroke="#32338c" stroke-miterlimit="10" stroke-width="1" stroke-dasharray="6.303 6.303"/>
              <path id="Trazado_1263194" data-name="Trazado 1263194" d="M243.41,100.615l1.743-1.909,1.921,1.728" transform="translate(-33.678 -13.657)" fill="none" stroke="#32338c" stroke-miterlimit="10" stroke-width="1"/>
              <line id="Línea_3559" data-name="Línea 3559" x2="31.582" y2="28.399" transform="translate(217.608 90.564)" fill="none" stroke="#32338c" stroke-miterlimit="10" stroke-width="1" stroke-dasharray="6.572 6.572"/>
              <path id="Trazado_1263195" data-name="Trazado 1263195" d="M291.647,140.23l1.922,1.728,1.718-1.931" transform="translate(-40.352 -19.374)" fill="none" stroke="#32338c" stroke-miterlimit="10" stroke-width="1"/>
              <line id="Línea_3560" data-name="Línea 3560" y1="77.187" x2="68.702" transform="translate(258.459 39.508)" fill="none" stroke="#32338c" stroke-miterlimit="10" stroke-width="1" stroke-dasharray="6.15 6.15"/>
              <path id="Trazado_1263196" data-name="Trazado 1263196" d="M381.74,43.245l1.719-1.931,1.994,1.645" transform="translate(-52.817 -5.716)" fill="none" stroke="#32338c" stroke-miterlimit="10" stroke-width="1"/>
              <line id="Línea_3561" data-name="Línea 3561" x2="29.23" y2="24.12" transform="translate(336.532 40.459)" fill="none" stroke="#32338c" stroke-miterlimit="10" stroke-width="1" stroke-dasharray="5.864 5.864"/>
              <line id="Línea_3562" data-name="Línea 3562" x2="1.994" y2="1.645" transform="translate(367.711 66.186)" fill="none" stroke="#32338c" stroke-miterlimit="10" stroke-width="1"/>
              <rect id="Rectángulo_457015" data-name="Rectángulo 457015" width="27.303" height="112.479" transform="translate(30.854 199.189)" fill="#9db7fe"/>
              <rect id="Rectángulo_457016" data-name="Rectángulo 457016" width="27.303" height="127.356" transform="translate(72.597 184.312)" fill="#9db7fe"/>
              <rect id="Rectángulo_457017" data-name="Rectángulo 457017" width="27.303" height="141.38" transform="translate(114.339 170.289)" fill="#9db7fe"/>
              <rect id="Rectángulo_457018" data-name="Rectángulo 457018" width="27.303" height="156.817" transform="translate(156.081 154.851)" fill="#9db7fe"/>
              <rect id="Rectángulo_457019" data-name="Rectángulo 457019" width="27.303" height="173.995" transform="translate(197.823 137.673)" fill="#9db7fe"/>
              <rect id="Rectángulo_457020" data-name="Rectángulo 457020" width="27.303" height="194.533" transform="translate(239.566 117.136)" fill="#9db7fe"/>
              <rect id="Rectángulo_457021" data-name="Rectángulo 457021" width="27.303" height="242.823" transform="translate(281.308 68.845)" fill="#9db7fe"/>
              <rect id="Rectángulo_457022" data-name="Rectángulo 457022" width="27.303" height="281.808" transform="translate(323.051 29.86)" fill="#9db7fe"/>
              <path id="Trazado_1263197" data-name="Trazado 1263197" d="M31.494,89.46A60.383,60.383,0,0,0,37.4,115.519l3.005,6.3,26.3-26.5-.492-2.513a22.63,22.63,0,0,1-.246-3.349,24.672,24.672,0,0,1,16.4-23.4l3.3-1.181V29.807L79.867,30.89A59.371,59.371,0,0,0,31.494,89.46" transform="translate(-89.887 -4.124)" fill="#32338c"/>
              <path id="Trazado_1263198" data-name="Trazado 1263198" d="M74.808,118.706,50.474,143.237l3.941,3.448a58.807,58.807,0,0,0,77.633,0l3.94-3.448-24.334-24.531-3.448,2.759a24.684,24.684,0,0,1-29.95,0Z" transform="translate(-92.513 -16.424)" fill="#9db7fe"/>
              <path id="Trazado_1263199" data-name="Trazado 1263199" d="M111.628,30.891l-5.813-1.084V64.88l3.3,1.182a24.671,24.671,0,0,1,16.4,23.4,22.751,22.751,0,0,1-.246,3.349l-.493,2.513,26.305,26.5,3-6.305A60.37,60.37,0,0,0,160,89.461a59.37,59.37,0,0,0-48.373-58.57" transform="translate(-100.17 -4.124)" fill="#5dd2e4"/>
              <path id="Trazado_1263200" data-name="Trazado 1263200" d="M318.626,28.838H171.717a3.016,3.016,0,0,1,0-6.031h146.91a3.016,3.016,0,1,1,0,6.031" transform="translate(-23.341 -3.156)" fill="#9db7fe"/>
              <path id="Trazado_1263201" data-name="Trazado 1263201" d="M318.626,40.686H171.717a3.016,3.016,0,0,1,0-6.031h146.91a3.016,3.016,0,1,1,0,6.031" transform="translate(-23.341 -4.795)" fill="#9db7fe"/>
              <path id="Trazado_1263202" data-name="Trazado 1263202" d="M318.626,52.534H171.717a3.016,3.016,0,0,1,0-6.031h146.91a3.016,3.016,0,1,1,0,6.031" transform="translate(-23.341 -6.434)" fill="#9db7fe"/>
              <g id="Grupo_1205902" data-name="Grupo 1205902" transform="translate(168.504 53.629)" opacity="0.3">
                <g id="Grupo_1205901" data-name="Grupo 1205901">
                  <g id="Grupo_1205900" data-name="Grupo 1205900" clip-path="url(#clip-path-4)">
                    <path id="Trazado_1263203" data-name="Trazado 1263203" d="M195.562,62.241h32.392a10.579,10.579,0,0,1,0,21.158H195.562Z" transform="translate(-195.562 -62.241)" fill="#7371fc"/>
                  </g>
                </g>
              </g>
              <path id="Trazado_1263204" data-name="Trazado 1263204" d="M193.863,83.4h0A10.579,10.579,0,1,1,204.442,72.82,10.579,10.579,0,0,1,193.863,83.4" transform="translate(-25.359 -8.612)" fill="#9db7fe"/>
              <g id="Grupo_1205905" data-name="Grupo 1205905" transform="translate(230.196 53.629)" opacity="0.3">
                <g id="Grupo_1205904" data-name="Grupo 1205904">
                  <g id="Grupo_1205903" data-name="Grupo 1205903" clip-path="url(#clip-path-5)">
                    <path id="Trazado_1263205" data-name="Trazado 1263205" d="M267.16,62.241h32.392a10.579,10.579,0,0,1,0,21.158H267.16Z" transform="translate(-267.16 -62.241)" fill="#7371fc"/>
                  </g>
                </g>
              </g>
              <path id="Trazado_1263206" data-name="Trazado 1263206" d="M265.461,83.4h0A10.579,10.579,0,1,1,276.04,72.82,10.579,10.579,0,0,1,265.461,83.4" transform="translate(-35.265 -8.612)" fill="#5dd2e4"/>
              <line id="Línea_3563" data-name="Línea 3563" x1="358.645" transform="translate(9.348 311.668)" fill="none" stroke="#32338c" stroke-miterlimit="10" stroke-width="1"/>
              <rect id="Rectángulo_457025" data-name="Rectángulo 457025" width="92.257" height="57.383" transform="translate(7.643 230.08)" fill="#32338c"/>
              <path id="Trazado_1263207" data-name="Trazado 1263207" d="M92.028,290.784H20.081a3.016,3.016,0,0,1,0-6.031H92.028a3.016,3.016,0,1,1,0,6.031" transform="translate(-2.361 -39.398)" fill="#eef"/>
              <path id="Trazado_1263208" data-name="Trazado 1263208" d="M92.028,302.632H20.081a3.016,3.016,0,0,1,0-6.031H92.028a3.016,3.016,0,0,1,0,6.031" transform="translate(-2.361 -41.037)" fill="#eef"/>
              <path id="Trazado_1263209" data-name="Trazado 1263209" d="M92.028,314.479H20.081a3.016,3.016,0,0,1,0-6.031H92.028a3.016,3.016,0,0,1,0,6.031" transform="translate(-2.361 -42.677)" fill="#eef"/>
              <path id="Trazado_1263210" data-name="Trazado 1263210" d="M105.808,265.933a6.8,6.8,0,1,1-6.8-6.8,6.8,6.8,0,0,1,6.8,6.8" transform="translate(-12.757 -35.853)" fill="#5dd2e4"/>
              <path id="Trazado_1263211" data-name="Trazado 1263211" d="M395.963,217.741c.467-.136.924-.283,1.36-.445a11.564,11.564,0,0,0,4.917-3.06,11.693,11.693,0,0,0,2.192-4.815,46.7,46.7,0,0,0,1.251-10,56.445,56.445,0,0,0-1.462-15.491,23.616,23.616,0,0,0-5.168-10.467c-4.493-4.833-12.256-6.629-18.213-3.792-3.131,1.491-5.264,4.567-6.452,7.824a51.879,51.879,0,0,0-2.077,10.173,7.084,7.084,0,0,1-1.124,3.061,25.656,25.656,0,0,1-3.8,3.855s2.644,1.332,3.7,1.673c.014,1.421-.166,2.8-.153,4.223a15.191,15.191,0,0,0,.414,4.1,5.122,5.122,0,0,0,2.419,3.209,7.842,7.842,0,0,0,3.451.566q2.186.036,4.369.142a3.657,3.657,0,0,1,1.6.327,3.278,3.278,0,0,1,1,.985,14.281,14.281,0,0,1,2.587,6.3H388.7a16.313,16.313,0,0,1,7.264,1.633" transform="translate(-50.831 -23.289)" fill="#fe814b"/>
              <path id="Trazado_1263212" data-name="Trazado 1263212" d="M384.61,214.912l8.392-.626L387.141,217Z" transform="translate(-53.214 -29.649)" fill="#32338c"/>
              <path id="Trazado_1263213" data-name="Trazado 1263213" d="M354.64,217.579h-24.5S283.53,179.377,282.16,179s-2.367,1.495-.5,3.489,6.977,7.475,6.977,7.475l-.783,6.307a3.949,3.949,0,0,0,2.938,4.311l8.224,2.108,24.505,28.637,30.706,5.816a35.458,35.458,0,0,0,.411-19.567" transform="translate(-38.828 -24.76)" fill="#fe814b"/>
              <path id="Trazado_1263214" data-name="Trazado 1263214" d="M406.75,298.688,414.7,270l-16.52-42.709a11.629,11.629,0,0,0-2.837-1.881,15.379,15.379,0,0,1-9.016.165,13.971,13.971,0,0,0-.165-1.8H366.024a35.47,35.47,0,0,1-.411,19.566l6.794,1.286s-10.092,9.594-9.469,15.448,5.357,13.082,5.357,13.082l-1.885,23.672a43.514,43.514,0,0,0,40.339,1.852" transform="translate(-50.212 -30.962)" fill="#91c4fb"/>
              <path id="Trazado_1263215" data-name="Trazado 1263215" d="M421.059,346.967c-1.74-12.177-15.656-35.95-15.656-35.95l.166-.6a43.514,43.514,0,0,1-40.34-1.851L354.377,444.811H385.4l10.024-82.5,1.578,82.5h28.986s-3.189-85.668-4.929-97.844" transform="translate(-49.031 -42.693)" fill="#32338c"/>
              <path id="Trazado_1263216" data-name="Trazado 1263216" d="M399.078,225.414a16.314,16.314,0,0,0-7.264-1.633H389.9a13.971,13.971,0,0,1,.165,1.8,15.379,15.379,0,0,0,9.016-.165" transform="translate(-53.946 -30.962)" fill="#91c4fb"/>
              <path id="Trazado_1263217" data-name="Trazado 1263217" d="M392,196.043s7.369,34.616,10.453,50.895,6.83,38.8,6.83,38.8c8.817,0,16.469-8.167,18.318-16.789a28.038,28.038,0,0,1-2.691,12.371c2.388-.92,3.924-3.231,5.119-5.5,3.628-6.878,5.582-15.008,3.51-22.505a48.652,48.652,0,0,0-3.759-8.756c-6.663-13.244-13.342-54.775-15.227-60.887-1.34-4.344-2.982-8.7-5.845-12.228-4.454-5.5-10.389-8.157-18.836-7.67-6.88.4-12.18,2.612-14.039,3.847a8.732,8.732,0,0,0-3.8,5.305,7.193,7.193,0,0,0,2.226,6.453,12.862,12.862,0,0,1,1.764-4.2,11.106,11.106,0,0,1,4.4,2.812,64.058,64.058,0,0,1,9.39,11.407c1.229,1.9,1.642,4.45,2.188,6.649" transform="translate(-51.458 -22.652)" fill="#32338c"/>
              <path id="Trazado_1263218" data-name="Trazado 1263218" d="M399.082,192.243a2.685,2.685,0,0,0-3.243-1.172,5.141,5.141,0,0,0-2.7,2.516,9.792,9.792,0,0,0-1.214,4.165,3.952,3.952,0,0,0,1.386,3.655,3,3,0,0,0,2.825.077,5.3,5.3,0,0,0,2.121-1.991,8.828,8.828,0,0,0,1.289-6.14" transform="translate(-54.225 -26.416)" fill="#fe814b"/>
              <path id="Trazado_1263219" data-name="Trazado 1263219" d="M378.133,191.9c0,.93-.454,1.682-1.01,1.681s-1-.756-1-1.685.454-1.683,1.01-1.681,1,.756,1,1.685" transform="translate(-52.04 -26.318)" fill="#053c5e"/>
              <path id="Trazado_1263220" data-name="Trazado 1263220" d="M398.825,195.91a2.629,2.629,0,0,0-.536-2.195,1.5,1.5,0,0,0-1.915-.535,3.919,3.919,0,0,0-1.254,1.858,16.717,16.717,0,0,0-.638,2.271l-.2-.206a2.134,2.134,0,0,1,1.427.2,1.418,1.418,0,0,1,.734,1.231,1.7,1.7,0,0,1-.721,1.2c-.366.275-.741.534-1.112.789l1.017-.892a1.626,1.626,0,0,0,.581-1.1,1.149,1.149,0,0,0-.647-.956,1.885,1.885,0,0,0-1.214-.131l-.255.051.054-.258a14.5,14.5,0,0,1,.624-2.333A4.216,4.216,0,0,1,396.2,192.9a1.415,1.415,0,0,1,1.281-.094,2.255,2.255,0,0,1,.977.78,2.579,2.579,0,0,1,.365,2.328" transform="translate(-54.526 -26.661)" fill="#053c5e"/>
              <g id="Grupo_1205908" data-name="Grupo 1205908" transform="translate(323.762 169.099)" style="mix-blend-mode: multiply;isolation: isolate">
                <g id="Grupo_1205907" data-name="Grupo 1205907">
                  <g id="Grupo_1205906" data-name="Grupo 1205906" clip-path="url(#clip-path-6)">
                    <path id="Trazado_1263221" data-name="Trazado 1263221" d="M380.823,197.673c.088.91-.975,1.757-2.375,1.892s-2.606-.493-2.693-1.4.975-1.757,2.376-1.892,2.6.493,2.693,1.4" transform="translate(-375.751 -196.252)" fill="#ff99c8"/>
                  </g>
                </g>
              </g>
              <path id="Trazado_1263222" data-name="Trazado 1263222" d="M375.786,200.512a6.935,6.935,0,0,1-4.177,5.163,11.952,11.952,0,0,0,4.177-5.163" transform="translate(-51.416 -27.743)" fill="#053c5e"/>
              <path id="Trazado_1263223" data-name="Trazado 1263223" d="M380.864,188.012a10.018,10.018,0,0,0-1.242-1.9,6.993,6.993,0,0,0-1.6-1.435,12.349,12.349,0,0,0-1.878-.74,14.493,14.493,0,0,0-2.094-.633l-.042-.146a3.02,3.02,0,0,1,2.486-.688,4.225,4.225,0,0,1,2.265,1.253,6.7,6.7,0,0,1,1.495,1.979,8.687,8.687,0,0,1,.752,2.264Z" transform="translate(-51.748 -25.242)" fill="#053c5e"/>
              <path id="Trazado_1263224" data-name="Trazado 1263224" d="M397.685,203.268a1.5,1.5,0,1,1-1.5-1.5,1.5,1.5,0,0,1,1.5,1.5" transform="translate(-54.609 -27.917)" fill="#91c4fb"/>
              <path id="Trazado_1263225" data-name="Trazado 1263225" d="M373.931,247.982a82.609,82.609,0,0,1,8.875,1.205,81.507,81.507,0,0,1,8.718,2.052,81.533,81.533,0,0,1-8.875-1.205,82.375,82.375,0,0,1-8.718-2.052" transform="translate(-51.737 -34.311)" fill="#32338c"/>
              <g id="Grupo_1205911" data-name="Grupo 1205911" transform="translate(348.107 174.303)" opacity="0.3">
                <g id="Grupo_1205910" data-name="Grupo 1205910">
                  <g id="Grupo_1205909" data-name="Grupo 1205909" clip-path="url(#clip-path-7)">
                    <path id="Trazado_1263226" data-name="Trazado 1263226" d="M412.23,202.292c1.312,6.342,2.543,12.7,4.254,18.931A83.093,83.093,0,0,0,423.49,239.2c2.974,5.714,6.49,11.244,8.626,17.434a32.567,32.567,0,0,1,1.829,9.581,68.064,68.064,0,0,1-.628,9.705,76.406,76.406,0,0,0,.206-9.685,32.15,32.15,0,0,0-2.032-9.38c-2.227-6.043-5.7-11.532-8.762-17.254a80.159,80.159,0,0,1-6.883-18.207c-1.587-6.3-2.654-12.7-3.616-19.1" transform="translate(-405.143 -202.292)" fill="#91c4fb"/>
                    <path id="Trazado_1263227" data-name="Trazado 1263227" d="M404.094,205.372a62.165,62.165,0,0,0,.987,11.792,67.345,67.345,0,0,0,3.06,11.406,79.128,79.128,0,0,0,4.866,10.753c1.89,3.457,4.026,6.785,6.074,10.179a77.031,77.031,0,0,1,5.461,10.6,34.626,34.626,0,0,1,2.693,11.629,21.779,21.779,0,0,1-2.661,11.563,16.329,16.329,0,0,1-8.817,7.663,16.4,16.4,0,0,0,8.446-7.865,21.277,21.277,0,0,0,2.369-11.332,35.565,35.565,0,0,0-2.757-11.363,76.8,76.8,0,0,0-5.472-10.451c-2.017-3.395-4.138-6.747-6.024-10.248a71.99,71.99,0,0,1-4.8-10.908,61.673,61.673,0,0,1-3.424-23.418" transform="translate(-404.005 -202.718)" fill="#91c4fb"/>
                    <path id="Trazado_1263228" data-name="Trazado 1263228" d="M404.672,244.092c1.291,3.929,3.628,7.337,5.952,10.716,1.177,1.687,2.318,3.41,3.351,5.211a33.97,33.97,0,0,1,2.588,5.677,30.368,30.368,0,0,1,1.512,12.316,22.417,22.417,0,0,1-4.292,11.509,23.767,23.767,0,0,0,2.545-5.571,23.425,23.425,0,0,0,1.086-5.99,31.025,31.025,0,0,0-.234-6.077,33.638,33.638,0,0,0-1.432-5.912,33.134,33.134,0,0,0-2.455-5.568c-.981-1.787-2.128-3.487-3.22-5.231s-2.208-3.485-3.177-5.313a25.465,25.465,0,0,1-2.225-5.768" transform="translate(-404.097 -208.075)" fill="#91c4fb"/>
                  </g>
                </g>
              </g>
              <path id="Trazado_1263229" data-name="Trazado 1263229" d="M402.119,367.572a26.649,26.649,0,0,0,3.856-4.131,26.088,26.088,0,0,0,4.575-10.135l.254-1.384.165-1.4.107-1.414c0-.472.009-.947.026-1.425q.114.7.2,1.419l.087,1.436-.046,1.442-.142,1.439a20.382,20.382,0,0,1-4.714,10.434l-.985,1.059-1.052.987-1.135.885c-.4.271-.8.533-1.2.787" transform="translate(-55.637 -48.105)" fill="#91c4fb"/>
              <path id="Trazado_1263230" data-name="Trazado 1263230" d="M289.651,270.351l-27.9,34.466-33.5-10.209,25.865-32.935Z" transform="translate(-31.582 -36.205)" fill="#eef"/>
              <path id="Trazado_1263231" data-name="Trazado 1263231" d="M289.651,270.351l-27.9,34.466-33.5-10.209,25.865-32.935Z" transform="translate(-31.582 -36.205)" fill="none" stroke="#32338c" stroke-miterlimit="10" stroke-width="3"/>
              <rect id="Rectángulo_457028" data-name="Rectángulo 457028" width="7.014" height="18.668" transform="translate(198.735 206.8)" fill="#fe814b"/>
              <path id="Trazado_1263232" data-name="Trazado 1263232" d="M248.99,406.348l3.725,51.568H234.621l-8.315-54.635Z" transform="translate(-31.312 -55.798)" fill="#fe814b"/>
              <path id="Trazado_1263233" data-name="Trazado 1263233" d="M192.264,406.348l-3.725,51.568h18.094l8.315-54.635Z" transform="translate(-26.086 -55.798)" fill="#fe814b"/>
              <path id="Trazado_1263234" data-name="Trazado 1263234" d="M194.909,320.673c-7.769-1.7-13.992-6.3-20.8-10.407a310.079,310.079,0,0,1,5.087-37.272c3.3.013,6.018,2.027,7.79,4.81a58.138,58.138,0,0,1,7.925,42.869" transform="translate(-24.089 -37.771)" fill="#fe814b"/>
              <path id="Trazado_1263235" data-name="Trazado 1263235" d="M237.579,250.985c4.092.014,10.612,4.873,12.445,8.531,8.441,16.842,13.7,29.429,18.41,47.67l12.994-15.159c-3.632-4.937-5.95-8.612-4.867-14.645.136-.763.447-1.66,1.2-1.821a1.6,1.6,0,0,1,1.515.764c1.424,1.952.175,4.64,1.664,6.542l8.759-10.861s1.1,9.849-.628,17.86-23.983,40.739-23.983,40.739l-30.1-48.983Z" transform="translate(-32.514 -34.726)" fill="#fe814b"/>
              <path id="Trazado_1263236" data-name="Trazado 1263236" d="M242.574,259.219l-4.882,52.607-17.307,18.483-25.59-9.267-4.493-11-9.158-42.357,49.666-18.858,2.779,1.651a26.843,26.843,0,0,1,8.86,8.547Z" transform="translate(-25.063 -34.428)" fill="#91c4fb"/>
              <path id="Trazado_1263237" data-name="Trazado 1263237" d="M238.792,204.681a11.724,11.724,0,0,1,4.53,5.987,40.062,40.062,0,0,1,1.691,7.443,1.993,1.993,0,0,0,.285.856,2.171,2.171,0,0,0,.574.483,11.528,11.528,0,0,1,4.555,6.226,14.6,14.6,0,0,1-3.99,2.37,51.59,51.59,0,0,1,.324,6.222c-.013,1.507-.154,3.163-1.215,4.234a4.981,4.981,0,0,1-2.178,1.158c-4.566,1.349-9.668-.125-13.379-3.106a28.352,28.352,0,0,1-9.172-20.671,14.877,14.877,0,0,1,2.791-8.443,12.556,12.556,0,0,1,12.872-4.477" transform="translate(-30.55 -28.03)" fill="#fe814b"/>
              <path id="Trazado_1263238" data-name="Trazado 1263238" d="M217.169,199.182a26.283,26.283,0,0,0-16.353,7.58c-7.6,7.912-9.619,20.41-18.364,27.037-3.6,2.724-8.491,4.741-9.539,9.129-.993,4.151,2.081,8.074,4.942,11.241a13.616,13.616,0,0,0,9.944,22.91,14.547,14.547,0,0,0,9.119,10.567,12.057,12.057,0,0,0,13.155-3.692,14.573,14.573,0,0,0,22.484-1.392c1.415-1.959,2.339-4.524,1.516-6.8,3.909.372,7.656-2.263,9.558-5.7a14.011,14.011,0,0,0,.94-11.3c-2.787-7.886-7.54-11.63-12.23-18.555-2.831-4.182-8.227-9.507-7.26-14.465,1.122-5.753,4.767-10.64,7.2-15.975A9.835,9.835,0,0,0,233.436,204c-.37-1.961-4.8-5.959-16.267-4.814" transform="translate(-23.898 -27.531)" fill="#32338c"/>
              <path id="Trazado_1263239" data-name="Trazado 1263239" d="M226.382,221.8a2.684,2.684,0,0,1,3.243-1.172,5.137,5.137,0,0,1,2.694,2.516,9.792,9.792,0,0,1,1.216,4.165,3.95,3.95,0,0,1-1.387,3.655,2.994,2.994,0,0,1-2.824.077,5.3,5.3,0,0,1-2.121-1.991,8.827,8.827,0,0,1-1.288-6.14" transform="translate(-31.242 -30.506)" fill="#fe814b"/>
              <path id="Trazado_1263240" data-name="Trazado 1263240" d="M243.251,221.457c0,.93.454,1.682,1.01,1.681s1-.757,1-1.685-.454-1.683-1.01-1.681-1,.756-1,1.685" transform="translate(-33.656 -30.408)" fill="#053c5e"/>
              <path id="Trazado_1263241" data-name="Trazado 1263241" d="M227.1,225.467a2.579,2.579,0,0,1,.364-2.328,2.255,2.255,0,0,1,.977-.78,1.417,1.417,0,0,1,1.282.094,4.212,4.212,0,0,1,1.431,2.006,14.417,14.417,0,0,1,.625,2.333l.054.258L231.58,227a1.885,1.885,0,0,0-1.214.131,1.147,1.147,0,0,0-.647.956,1.626,1.626,0,0,0,.581,1.1l1.017.892c-.371-.255-.746-.514-1.112-.789a1.7,1.7,0,0,1-.721-1.2,1.418,1.418,0,0,1,.734-1.231,2.135,2.135,0,0,1,1.427-.2l-.2.206a16.7,16.7,0,0,0-.638-2.271,3.919,3.919,0,0,0-1.254-1.858,1.5,1.5,0,0,0-1.915.535,2.629,2.629,0,0,0-.536,2.195" transform="translate(-31.403 -30.75)" fill="#053c5e"/>
              <g id="Grupo_1205914" data-name="Grupo 1205914" transform="translate(207.71 195.428)" style="mix-blend-mode: multiply;isolation: isolate">
                <g id="Grupo_1205913" data-name="Grupo 1205913">
                  <g id="Grupo_1205912" data-name="Grupo 1205912" clip-path="url(#clip-path-8)">
                    <path id="Trazado_1263242" data-name="Trazado 1263242" d="M241.068,228.23c-.088.91.975,1.757,2.375,1.892s2.606-.493,2.694-1.4-.975-1.757-2.376-1.892-2.6.493-2.693,1.4" transform="translate(-241.063 -226.809)" fill="#ff99c8"/>
                  </g>
                </g>
              </g>
              <path id="Trazado_1263243" data-name="Trazado 1263243" d="M246.25,231.069a11.938,11.938,0,0,0,4.177,5.163,6.935,6.935,0,0,1-4.177-5.163" transform="translate(-34.071 -31.971)" fill="#053c5e"/>
              <path id="Trazado_1263244" data-name="Trazado 1263244" d="M239.577,217.521a8.722,8.722,0,0,1,.751-2.264,6.707,6.707,0,0,1,1.495-1.98,4.228,4.228,0,0,1,2.265-1.253,3.02,3.02,0,0,1,2.486.689l-.041.145a14.49,14.49,0,0,0-2.094.634,12.311,12.311,0,0,0-1.877.739,7,7,0,0,0-1.6,1.436,9.97,9.97,0,0,0-1.242,1.9Z" transform="translate(-33.148 -29.331)" fill="#053c5e"/>
              <path id="Trazado_1263245" data-name="Trazado 1263245" d="M189.667,319.874s9.413,9.668,22.43,9.668,24.959-7.887,24.959-7.887l21.781,104.117s-13.62,11.905-40.469,11.905-41.817-9.143-41.817-9.143Z" transform="translate(-24.428 -44.258)" fill="#32338c"/>
              <g id="Grupo_1205917" data-name="Grupo 1205917" transform="translate(153.943 192.079)" opacity="0.3">
                <g id="Grupo_1205916" data-name="Grupo 1205916">
                  <g id="Grupo_1205915" data-name="Grupo 1205915" clip-path="url(#clip-path-9)">
                    <path id="Trazado_1263246" data-name="Trazado 1263246" d="M205.953,222.922a44.65,44.65,0,0,1-2.452,9.351,16.823,16.823,0,0,1-5.922,7.7,45.91,45.91,0,0,1-4.3,2.254,13.189,13.189,0,0,0-3.652,2.876,13.892,13.892,0,0,0-2.46,3.969,13.231,13.231,0,0,0-1.044,4.566l-.015.291-.277-.031a7.643,7.643,0,0,0-7.169,3.48,7.356,7.356,0,0,1,2.985-3.049,7.463,7.463,0,0,1,4.235-.962l-.292.26a13.851,13.851,0,0,1,.9-4.824,14.669,14.669,0,0,1,2.54-4.221,14.011,14.011,0,0,1,3.843-3.108c1.454-.781,2.967-1.31,4.259-2.171a17.277,17.277,0,0,0,5.841-7.257,58.48,58.48,0,0,0,2.978-9.12" transform="translate(-178.663 -222.922)" fill="#91c4fb"/>
                    <path id="Trazado_1263247" data-name="Trazado 1263247" d="M209.537,237.29a31.738,31.738,0,0,1-1.478,9.58,15.546,15.546,0,0,1-2.3,4.344,19.758,19.758,0,0,1-3.532,3.415c-2.536,1.992-5.255,3.827-6.8,6.545-1.526,2.738-1.588,6.045-1.638,9.233l-.005.314-.3.033a3.459,3.459,0,0,0-2.512,1.949,8.32,8.32,0,0,0-.917,3.356,16.021,16.021,0,0,0,.956,7.05,15.306,15.306,0,0,1-1.4-7.079,8.813,8.813,0,0,1,.853-3.594,4.1,4.1,0,0,1,2.925-2.38l-.305.347a37.544,37.544,0,0,1,.2-4.878,13.277,13.277,0,0,1,1.413-4.754A13.432,13.432,0,0,1,197.913,257c1.246-1.07,2.572-2,3.839-2.979a20.262,20.262,0,0,0,3.458-3.24,14.935,14.935,0,0,0,2.351-4.095,36.851,36.851,0,0,0,1.976-9.394" transform="translate(-180.176 -224.91)" fill="#91c4fb"/>
                    <path id="Trazado_1263248" data-name="Trazado 1263248" d="M214.484,257.366a12.189,12.189,0,0,1-.594,7.315c-.812,2.356-1.983,4.537-2.83,6.8a14.054,14.054,0,0,0-.968,7.018,13.645,13.645,0,0,0,2.692,6.555l.12.157-.081.159a4.063,4.063,0,0,0,.254,3.622,13.143,13.143,0,0,0,2.521,3.046,11.931,11.931,0,0,1-2.838-2.863,5,5,0,0,1-.73-1.945,3.8,3.8,0,0,1,.256-2.114l.039.315a13.287,13.287,0,0,1-3.058-6.822,13.127,13.127,0,0,1,.009-3.792,17.026,17.026,0,0,1,1.012-3.632c.917-2.326,2.156-4.456,3.078-6.7a13.285,13.285,0,0,0,1.118-7.119" transform="translate(-182.879 -227.688)" fill="#91c4fb"/>
                    <path id="Trazado_1263249" data-name="Trazado 1263249" d="M226.993,246.968c.244,1.581.441,3.167.731,4.735a40.534,40.534,0,0,0,1.018,4.648,19.749,19.749,0,0,0,4.369,8.216c1.048,1.172,2.221,2.261,3.3,3.469A21.415,21.415,0,0,1,239.229,272a17.174,17.174,0,0,1,1.736,4.531,12.486,12.486,0,0,1,.109,4.805,13.407,13.407,0,0,0-.518-4.7,16.833,16.833,0,0,0-1.9-4.3,23.876,23.876,0,0,0-2.844-3.748c-1.068-1.157-2.245-2.24-3.339-3.441a17.8,17.8,0,0,1-2.756-4.039,21.461,21.461,0,0,1-1.612-4.586,48.773,48.773,0,0,1-1.112-9.55" transform="translate(-185.35 -226.249)" fill="#91c4fb"/>
                  </g>
                </g>
              </g>
              <path id="Trazado_1263250" data-name="Trazado 1263250" d="M273.92,316.246a11.77,11.77,0,0,1,1.457,3.034,11.641,11.641,0,0,1,.639,3.3,11.63,11.63,0,0,1-1.457-3.034,11.773,11.773,0,0,1-.639-3.3" transform="translate(-37.899 -43.756)" fill="#32338c"/>
            </g>
          </g>
        </g>
      </g>
    </g>
  </g>
</svg>
