<svg xmlns="http://www.w3.org/2000/svg" xmlns:xlink="http://www.w3.org/1999/xlink" width="84" height="84" viewBox="0 0 84 84">
  <defs>
    <clipPath id="clip-path">
      <rect id="Rectángulo_457041" data-name="Rectángulo 457041" width="65" height="65.225" fill="#302c9e"/>
    </clipPath>
  </defs>
  <g id="Grupo_1204624" data-name="Grupo 1204624" transform="translate(-185.711 -1366)">
    <rect id="Rectángulo_455444" data-name="Rectángulo 455444" width="84" height="84" rx="12" transform="translate(185.711 1366)" fill="#feea89"/>
    <g id="Grupo_1205925" data-name="Grupo 1205925" transform="translate(195.711 1375)">
      <g id="Grupo_1205924" data-name="Grupo 1205924" clip-path="url(#clip-path)">
        <path id="Trazado_1263258" data-name="Trazado 1263258" d="M0,153.015a8.292,8.292,0,0,1,4.037-5.5c.34-.212.942-.3,1.132-.458.314-.259.262-2.8.152-3.335C5.057,142.441,3,140.229,2.494,138.6c-1.136-3.647,1.045-7.715,4.958-8.14a63.463,63.463,0,0,1,9.529.014c3.1.478,3.36,5.338.3,6.271-.292,2.223.681,6.741-.583,8.524a4.2,4.2,0,0,1-1.332,1.046c-.177.121-.368-.032-.259.443a7.864,7.864,0,0,1,1.442.048c5.4,1.122,8.433,8.365,12.252,11.792,4.08.2,8.046.347,11.942-1.009l4.07-8.451.644-.35,15.667-.05c1.206.11,2.021.4,1.588,1.8l-6.372,13.7c.023,2.506-.131,4.913-3.166,5.182-6.8.6-14.531-.429-21.427-.054-1.262-.272-1.787-1.151-2.463-2.109-1.444-.184-3.108.145-4.522-.049-2.309-.316-3.71-2.727-5.284-4.156v6.36H17.291v-8.844l-3.96-4.4,1.653-1.455,8.065,9.041a5.133,5.133,0,0,0,1.894,1.286h8.646v-4.373H27.726a28.752,28.752,0,0,1-2.082-2.291C23.6,156,19.721,150.034,16.938,149.2a21.692,21.692,0,0,0-5.3-.463c-3.309-.027-7.313-.332-8.962,3.179a9.642,9.642,0,0,0-.487,1.3v16.2H0Zm9.739-10.633v-3.677c0-.247,2.255-3.272,2.583-3.777,1.237-.6,6.573,1.058,4.473-2.284H7.254a12.02,12.02,0,0,0-1.279.708,4.035,4.035,0,0,0-1.114,5.263c.187.4,2.009,3.461,2.179,3.585.574.42,1.966.074,2.7.183m5.366-5.366a4.69,4.69,0,0,0-1.591.1,18.576,18.576,0,0,0-1.481,2.1,13.154,13.154,0,0,0,0,3.963,6.033,6.033,0,0,0,1.825,1.358c.474.056,1.244-.455,1.244-.858Zm-4.671,7.553H7.553v2.186H12.72c.118-.551-.511-.459-.9-.794-.275-.24-1.248-1.352-1.39-1.393m49.589,6.36H46.409c-.59.794-3.662,7.163-3.452,7.523,1.718,1.227,4.809,1.846,4.752,4.393l6.658.023Zm-24.248,9.739v4.373c1.98-.21,3.323-2.357,5.116-3.148l4.623.761c-.9-.613-3.39-2.539-4.318-2.744-1.385-.305-3.811,1.217-5.421.758m6.559,6.559-.087-2c-2.094-.938-2.934.672-4.412,1.576-.317.194-.848.09-.868.424Zm2.286-2.186c-.623.4-.173,1.965.435,2.148,2.521-.127,5.453.3,7.923.049,1.683-.17,1.37-2.2.982-2.2Z" transform="translate(0 -104.389)" fill="#302c9e"/>
        <path id="Trazado_1263259" data-name="Trazado 1263259" d="M49.925,42.365V40.179H92.359c.241,0,1.044-.692.9-1.083l0-35.595-.339-1.1L41.47,2.209c-.438-.059-1.284.207-1.284.7V23.881H38V2.714A3.774,3.774,0,0,1,40.077.22c17.385-.445,34.868-.054,52.29-.2A3.179,3.179,0,0,1,95.447,3.1v35.99a3.757,3.757,0,0,1-.922,2.257,6.207,6.207,0,0,1-1.967,1.014Z" transform="translate(-30.447 0)" fill="#302c9e"/>
        <path id="Trazado_1263260" data-name="Trazado 1263260" d="M140.765,78.915h2.187V81.1H104V78.914h1.989V74.443a3.358,3.358,0,0,1,.7-.894h5.863V69.872a4.65,4.65,0,0,1,.7-.7H119.1V64.307c0-.149.483-.45.7-.492,1.438-.275,3.636.185,5.173,0,.289-.034.511-.025.686-.308V58.94a4.651,4.651,0,0,1,.7-.7h5.664V54.767a3.7,3.7,0,0,1,.846-.744,39.168,39.168,0,0,1,6.794-.138c.393.063,1.106.493,1.106.882Zm-2.186-22.856h-4.373V78.915h4.373Zm-6.559,4.373h-4.074l-.3.3V78.617l.3.3h4.074Zm-6.36,18.484V66.1l-.3-.3h-4.074V78.915ZM119.1,71.362h-4.373v7.553H119.1Zm-6.559,4.373H108.17v3.18h4.373Z" transform="translate(-83.326 -43.108)" fill="#302c9e"/>
        <path id="Trazado_1263261" data-name="Trazado 1263261" d="M124.962,24.264V26.45H118.3c-.117,0-.671,1.047-.913,1.273a3.666,3.666,0,0,1-2.869.72c-.61-.063-.858-.491-1.424-.26a48.169,48.169,0,0,0-4.246,3.135c-.522.549-.126,1.012-.176,1.8-.179,2.816-3.24,3.746-5.447,2.312L97.759,39.4c.949,3.215-3.056,5.837-5.494,3.346-.242-.248-.661-1.194-.794-1.194H87V39.369h4.571c.076,0,.38-.934.786-1.3a3.673,3.673,0,0,1,4.183-.393c.8-.84,5.511-3.663,5.722-4.409a15.059,15.059,0,0,1,.225-1.762,3.317,3.317,0,0,1,2.518-1.858,15.928,15.928,0,0,1,2.071.271A41.6,41.6,0,0,0,112,26.112a13.274,13.274,0,0,0,.057-1.533,3.258,3.258,0,0,1,4.3-2.349c.951.312,1.991,2.034,2.14,2.034Zm-10.195.038a1.055,1.055,0,0,0,.169,1.95,1.055,1.055,0,1,0-.169-1.95m-9.738,7.545c-1.225.365-.488,2.276.508,2.129a1.1,1.1,0,1,0-.508-2.129M94.3,39.4c-1.2.32-.857,2.39.5,2.127a1.093,1.093,0,1,0-.5-2.127" transform="translate(-69.709 -17.674)" fill="#302c9e"/>
        <rect id="Rectángulo_457039" data-name="Rectángulo 457039" width="2.188" height="2.188" transform="translate(57.438 6.589)" fill="#302c9e"/>
        <rect id="Rectángulo_457040" data-name="Rectángulo 457040" width="2.188" height="2.188" transform="translate(12.918 21.694)" fill="#302c9e"/>
        <path id="Trazado_1263262" data-name="Trazado 1263262" d="M55.241,16.232c1.331-.251,1.907,2.009.327,2.154a1.091,1.091,0,0,1-.327-2.154" transform="translate(-43.565 -12.99)" fill="#302c9e"/>
        <path id="Trazado_1263263" data-name="Trazado 1263263" d="M88.92,18.167c-.834.833-2.676-.325-1.633-1.534,1-1.165,2.6.573,1.633,1.534" transform="translate(-69.688 -13.016)" fill="#302c9e"/>
        <path id="Trazado_1263264" data-name="Trazado 1263264" d="M71.066,18.185c-.889-.889.439-2.593,1.533-1.633,1.166,1.023-.579,2.587-1.533,1.633" transform="translate(-56.708 -13.034)" fill="#302c9e"/>
      </g>
    </g>
  </g>
</svg>
