<svg xmlns="http://www.w3.org/2000/svg" xmlns:xlink="http://www.w3.org/1999/xlink" width="96" height="96" viewBox="0 0 96 96">
  <defs>
    <clipPath id="clip-path">
      <rect id="Rectángulo_454682" data-name="Rectángulo 454682" width="96" height="96" fill="#feea89"/>
    </clipPath>
    <clipPath id="clip-path-2">
      <rect id="Rectángulo_455938" data-name="Rectángulo 455938" width="60" height="60" transform="translate(8605 -9827)" fill="#fff" stroke="#707070" stroke-width="1"/>
    </clipPath>
    <clipPath id="clip-path-3">
      <rect id="Rectángulo_456398" data-name="Rectángulo 456398" width="51.027" height="50.955" fill="#fff"/>
    </clipPath>
  </defs>
  <g id="Grupo_1204865" data-name="Grupo 1204865" transform="translate(-970.873 -1855.311)">
    <g id="Grupo_1204264" data-name="Grupo 1204264" transform="translate(239.127 -6762.689)">
      <g id="Grupo_1203592" data-name="Grupo 1203592" transform="translate(731.746 8618)">
        <g id="Grupo_1203487" data-name="Grupo 1203487">
          <g id="Grupo_1203486" data-name="Grupo 1203486" clip-path="url(#clip-path)">
            <path id="Trazado_1256437" data-name="Trazado 1256437" d="M2.058,84.327a47.583,47.583,0,0,0,1.836,6.227L23,71.45a25.883,25.883,0,0,1,4.958-13.021Z" transform="translate(-0.911 -25.866)" fill="#feea89"/>
            <path id="Trazado_1256438" data-name="Trazado 1256438" d="M90.555,3.894a47.583,47.583,0,0,0-6.227-1.836l-25.9,25.9A25.886,25.886,0,0,1,71.451,23Z" transform="translate(-25.866 -0.911)" fill="#feea89"/>
            <path id="Trazado_1256439" data-name="Trazado 1256439" d="M117.575,12.855a48.029,48.029,0,0,0-5.022-3.041L95.523,26.843a25.831,25.831,0,0,1,6.031,2.032Z" transform="translate(-42.287 -4.345)" fill="#feea89"/>
            <path id="Trazado_1256440" data-name="Trazado 1256440" d="M9.814,112.552a47.933,47.933,0,0,0,3.041,5.022l16.021-16.021a25.831,25.831,0,0,1-2.032-6.031Z" transform="translate(-4.345 -42.287)" fill="#feea89"/>
            <path id="Trazado_1256441" data-name="Trazado 1256441" d="M4.273,34.929,34.929,4.273A48.116,48.116,0,0,0,4.273,34.929" transform="translate(-1.892 -1.892)" fill="#feea89"/>
            <path id="Trazado_1256442" data-name="Trazado 1256442" d="M48,0q-2.406,0-4.752.234L.234,43.248Q0,45.593,0,48q0,1.726.123,3.422l51.3-51.3C50.292.043,49.151,0,48,0" transform="translate(0 0)" fill="#feea89"/>
            <path id="Trazado_1256443" data-name="Trazado 1256443" d="M143.483,112.406l-31.076,31.076a48.112,48.112,0,0,0,31.076-31.076" transform="translate(-49.761 -49.761)" fill="#feea89"/>
            <path id="Trazado_1256444" data-name="Trazado 1256444" d="M131.113,79.625,79.625,131.113q1.795.134,3.624.135c1.524,0,3.03-.074,4.517-.213l43.27-43.27c.139-1.487.213-2.993.213-4.516q0-1.829-.135-3.624" transform="translate(-35.249 -35.249)" fill="#feea89"/>
            <path id="Trazado_1256445" data-name="Trazado 1256445" d="M119.266,41.241l15.585-15.585a48.285,48.285,0,0,0-4.038-4.025L115.222,37.222a26.166,26.166,0,0,1,4.044,4.019" transform="translate(-51.007 -9.575)" fill="#feea89"/>
            <path id="Trazado_1256446" data-name="Trazado 1256446" d="M37.222,115.222,21.63,130.814a48.369,48.369,0,0,0,4.025,4.038l15.585-15.585a26.166,26.166,0,0,1-4.019-4.044" transform="translate(-9.575 -51.007)" fill="#feea89"/>
            <path id="Trazado_1256447" data-name="Trazado 1256447" d="M74.932,129.121,55.9,148.149a47.687,47.687,0,0,0,6.207,1.857l25.333-25.333a25.88,25.88,0,0,1-12.512,4.448" transform="translate(-24.748 -55.191)" fill="#feea89"/>
            <path id="Trazado_1256448" data-name="Trazado 1256448" d="M150.006,62.11a47.591,47.591,0,0,0-1.857-6.206L129.121,74.931a25.87,25.87,0,0,1-4.448,12.512Z" transform="translate(-55.191 -24.748)" fill="#feea89"/>
            <path id="Trazado_1256449" data-name="Trazado 1256449" d="M147.17,41.946a48.074,48.074,0,0,0-3.054-5.009l-16,16a25.825,25.825,0,0,1,2.064,6Z" transform="translate(-56.713 -16.352)" fill="#feea89"/>
            <path id="Trazado_1256450" data-name="Trazado 1256450" d="M36.937,144.115a47.933,47.933,0,0,0,5.009,3.055l16.995-17a25.812,25.812,0,0,1-6-2.064Z" transform="translate(-16.352 -56.713)" fill="#feea89"/>
          </g>
        </g>
      </g>
      <g id="Grupo_154427" data-name="Grupo 154427" transform="translate(736.746 8623)">
        <path id="Elipse_5729" data-name="Elipse 5729" d="M43,0A43,43,0,1,1,0,43,43,43,0,0,1,43,0Z" transform="translate(0 0)" fill="#302c9e"/>
      </g>
    </g>
    <g id="Enmascarar_grupo_1119215" data-name="Enmascarar grupo 1119215" transform="translate(-7615.289 11700)" clip-path="url(#clip-path-2)">
      <g id="Grupo_1205361" data-name="Grupo 1205361" transform="translate(8608.848 -9821.922)">
        <g id="Grupo_1205360" data-name="Grupo 1205360" clip-path="url(#clip-path-3)">
          <path id="Trazado_1261602" data-name="Trazado 1261602" d="M11.936,3.767V.73c0-.189.542-.818.849-.708h37.23l.813.2.2.813-.008,46.1A4.232,4.232,0,0,1,46.9,50.955l-34.574-.009c-1.673.016-3.817-2.229-3.817-3.813V39.348l-.387-.233c-.546.434-1.536,1.877-2.263,1.652-.841-.261-2.9-3.076-3.82-3.668-.927-1.091.954-1.843,1.254-2.5.107-.234.057-.622-.156-.622H.646c-.388,0-.511-.542-.545-.854a34.284,34.284,0,0,1-.008-5.149c.046-.337.394-.849.708-.849H3.371c.377-.808-1.328-1.483-1.526-2.135A.973.973,0,0,1,2.039,24a43.715,43.715,0,0,1,3.623-3.541c1.174-.357,1.663,1.3,2.379,1.607.164.071.3-.118.469-.08V19.416c0-.905,1.635-.64,2.179-.778L1.039,8.979a4.165,4.165,0,0,1-.9-3.385C.408,4.028,4.2.262,5.8.044c2.986-.408,4.141,2.135,6.138,3.723M5.976,1.779c-.851.155-3.553,2.786-3.913,3.561A2.158,2.158,0,0,0,2.67,8.123L8.2,2.6a2.167,2.167,0,0,0-2.219-.82m43.331-.037H13.648V5.557l6.909,6.763c.235-.167.327-.391.646-.454a26.066,26.066,0,0,1,3.7.03c.951.279.625,1.68.188,1.68H21.746c.355.367.921,1.638,1.323,1.713l10.4.032c.979.281.467,1.68.033,1.68H23.614l.407,1.722,9.679.094c.682.347.261,1.609-.354,1.609h-8.8l.779,3.426H37.473V5.557c0-.278.616-.376.847-.4a47.531,47.531,0,0,1,6.868,0c.265.034.472.058.616.318l0,16.192a4.03,4.03,0,0,1-.464.47H39.186v2.725c0,.261-.851.667-1.164.7-4.009.475-8.958-.349-13.067-.02-3.744-1.208-8.108-1.486-11.306-3.876V40.827H26.417V37.946a.908.908,0,0,1,.545-.545h3.659V33.9c0-.13-.69-.388-.859-.542-.282-.257-.522-.972-.8-1.067L27.2,32.263V35.3a1.175,1.175,0,0,1-.853.392c-2.6.3-5.756-.239-8.42,0-.643-.084-.8-.405-.858-1.011a45.311,45.311,0,0,1,.007-6.553c.1-.8.4-.946,1.164-1.016a55.567,55.567,0,0,1,7.952,0c.26.031,1.009.307,1.009.548V30.55l1.928.01c.982-2.293,3.744-2.2,4.87-.034l1.766.025V27.825c0-.39.656-.661,1.009-.7a55.352,55.352,0,0,1,8.1,0c.731.085.949.307,1.018,1.007a48,48,0,0,1,0,6.869c-.075.643-.443.648-1.014.7-2.718.242-5.9-.128-8.647-.088a4.029,4.029,0,0,1-.47-.464V32.263l-1.837.032c.049.8-1.588,1.412-1.588,1.525V37.4h3.815a2.6,2.6,0,0,1,.389.389v2.8l.234.234h7.007c.075,0,.3.313.354.425.546,1.079-.007,4.56.205,6.023A2.536,2.536,0,0,0,48.116,48.9a3.187,3.187,0,0,0,1.191-1.612ZM9.366,3.77,3.841,9.294l.542.542L9.908,4.312Zm1.713,1.713-.854.854,8.716,8.418c.195-.266.736-.507.556-.864Zm33.09,1.4H39.186V20.428h4.983ZM8.92,7.671c-.26.3-1.314,1.014-1.121,1.389l8.418,8.407,1.321-1.321ZM6.408,10.154l-.854.854,8.716,8.418c.195-.266.736-.507.556-.864Zm8.954,10.739a9.862,9.862,0,0,0,3.78,1.222l3.045-3.045a9.863,9.863,0,0,0-1.222-3.78Zm-3.426-.465H10.223v2.414A6.549,6.549,0,0,1,7.965,24c-.6,0-1.391-1.185-1.868-1.544L3.839,24.711c.369.36,1.51,1.243,1.562,1.718a6.225,6.225,0,0,1-1.173,2.408H1.814v3.426H4.072c.437,0,1.313,2.021,1.308,2.417-.009.618-1.17,1.374-1.538,1.865l2.121,2.091c.366.064,1.151-1.3,1.7-1.392a7.6,7.6,0,0,1,2.243.71c.668.458.107,2,.386,2.728l1.645.146V37.4c-8.9-.379-8.962-13.365,0-13.547Zm11.522,2.958-.624-2.335-1.71,1.635Zm-11.521,2.18C5.42,25.559,5.245,35.308,11.7,35.69c.324.019.2,0,.233-.23.064-.445-.036-1.013-.008-1.477a3.438,3.438,0,0,1-.008-6.873Zm0,3.271c-2.165.442-2.277,3.157,0,3.426Zm13.547,0h-6.7v5.139h6.7Zm18.686,0h-6.7v5.139h6.7ZM32.141,32.069c.747-.747-.477-2.114-1.279-1.2-.753.857.583,1.9,1.279,1.2m2.685,7.045h-6.7v1.713h6.7Zm7.786,3.426H10.223v4.438A4.255,4.255,0,0,0,11,48.535a8.007,8.007,0,0,0,1.168.7H43.234c.023-.406-.623-1.173-.623-1.479Z" transform="translate(0 0)" fill="#fff"/>
          <path id="Trazado_1261603" data-name="Trazado 1261603" d="M135.594,56.9h11.066a.863.863,0,0,0,0-1.725H135.594a.863.863,0,0,0,0,1.725" transform="translate(-113.751 -46.583)" fill="#fff"/>
          <path id="Trazado_1261604" data-name="Trazado 1261604" d="M135.594,33.674h11.066a.863.863,0,1,0,0-1.725H135.594a.863.863,0,1,0,0,1.725" transform="translate(-113.751 -26.974)" fill="#fff"/>
        </g>
      </g>
    </g>
  </g>
</svg>
