<svg xmlns="http://www.w3.org/2000/svg" xmlns:xlink="http://www.w3.org/1999/xlink" width="188" height="159" viewBox="0 0 188 159">
  <defs>
    <clipPath id="clip-path">
      <rect id="Rectángulo_456369" data-name="Rectángulo 456369" width="188" height="159" transform="translate(289.711 4830)" fill="#fff" stroke="#707070" stroke-width="1"/>
    </clipPath>
    <clipPath id="clip-path-2">
      <rect id="Rectángulo_456362" data-name="Rectángulo 456362" width="35.074" height="93.333" fill="#5dd2e4"/>
    </clipPath>
    <clipPath id="clip-path-3">
      <rect id="Rectángulo_456363" data-name="Rectángulo 456363" width="37.253" height="99.131" fill="#ebcc30"/>
    </clipPath>
    <clipPath id="clip-path-4">
      <rect id="Rectángulo_456368" data-name="Rectángulo 456368" width="110" height="110" transform="translate(301.172 4830.75)" fill="#fff" stroke="#707070" stroke-width="1"/>
    </clipPath>
    <clipPath id="clip-path-5">
      <rect id="Rectángulo_456519" data-name="Rectángulo 456519" width="100.005" height="104" fill="none"/>
    </clipPath>
  </defs>
  <g id="Enmascarar_grupo_1119243" data-name="Enmascarar grupo 1119243" transform="translate(-289.711 -4830)" clip-path="url(#clip-path)">
    <g id="Grupo_1205318" data-name="Grupo 1205318" transform="translate(290 4830.667)">
      <g id="Grupo_1205317" data-name="Grupo 1205317" clip-path="url(#clip-path-2)">
        <path id="Trazado_1261443" data-name="Trazado 1261443" d="M33.661,5.334,0,53.509v3.862L34.7,7.706a8.612,8.612,0,0,0-1.041-2.372" transform="translate(0 -2.876)" fill="#5dd2e4"/>
        <path id="Trazado_1261444" data-name="Trazado 1261444" d="M35.074,34.463,0,84.66v3.862l35.074-50.2Z" transform="translate(0 -18.579)" fill="#5dd2e4"/>
        <path id="Trazado_1261445" data-name="Trazado 1261445" d="M29.975.018,0,42.918v3.862L32.12.811A4.113,4.113,0,0,0,29.975.018" transform="translate(0.001 -0.01)" fill="#5dd2e4"/>
        <path id="Trazado_1261446" data-name="Trazado 1261446" d="M24.585,0,0,35.185v3.862L27.283,0Z" transform="translate(0)" fill="#5dd2e4"/>
        <path id="Trazado_1261447" data-name="Trazado 1261447" d="M35.074,17.7,0,67.9v3.862l35.074-50.2Z" transform="translate(0 -9.544)" fill="#5dd2e4"/>
        <path id="Trazado_1261448" data-name="Trazado 1261448" d="M8.394,0,0,12.013v3.862L11.092,0Z" transform="translate(0)" fill="#5dd2e4"/>
        <path id="Trazado_1261449" data-name="Trazado 1261449" d="M5.333,0C2.388,0,0,3.417,0,7.632v.519L5.7,0Z" transform="translate(-0.001)" fill="#5dd2e4"/>
        <path id="Trazado_1261450" data-name="Trazado 1261450" d="M13.791,0,0,19.737V23.6L16.489,0Z" transform="translate(0)" fill="#5dd2e4"/>
        <path id="Trazado_1261451" data-name="Trazado 1261451" d="M19.188,0,0,27.461v3.862L21.886,0Z" transform="translate(0)" fill="#5dd2e4"/>
        <path id="Trazado_1261452" data-name="Trazado 1261452" d="M51.687,118.1,24.5,157h2.7l24.484-35.041Z" transform="translate(-16.613 -63.666)" fill="#5dd2e4"/>
        <path id="Trazado_1261453" data-name="Trazado 1261453" d="M63.049,134.855,41.264,166.034h2.7l19.087-27.317Z" transform="translate(-27.975 -72.7)" fill="#5dd2e4"/>
        <path id="Trazado_1261454" data-name="Trazado 1261454" d="M74.411,151.614,58.023,175.068h2.7l13.69-19.593Z" transform="translate(-39.337 -81.735)" fill="#5dd2e4"/>
        <path id="Trazado_1261455" data-name="Trazado 1261455" d="M91.8,193.138c2.945,0,5.332-3.417,5.332-7.631v-.376l-5.595,8.007Z" transform="translate(-62.059 -99.804)" fill="#5dd2e4"/>
        <path id="Trazado_1261456" data-name="Trazado 1261456" d="M85.772,168.372,74.781,184.1h2.7l8.293-11.869Z" transform="translate(-50.698 -90.77)" fill="#5dd2e4"/>
        <path id="Trazado_1261457" data-name="Trazado 1261457" d="M35.074,67.821,0,118.018v3.862l35.074-50.2Z" transform="translate(0 -36.562)" fill="#5dd2e4"/>
        <path id="Trazado_1261458" data-name="Trazado 1261458" d="M35.074,51.062,0,101.26v3.862l35.074-50.2Z" transform="translate(0 -27.528)" fill="#5dd2e4"/>
        <path id="Trazado_1261459" data-name="Trazado 1261459" d="M35.918,84.579,1.245,134.2a8.505,8.505,0,0,0,1.061,2.343l33.612-48.1Z" transform="translate(-0.844 -45.597)" fill="#5dd2e4"/>
        <path id="Trazado_1261460" data-name="Trazado 1261460" d="M41.434,101.338,9.38,147.212a4.066,4.066,0,0,0,2.176.748L41.434,105.2Z" transform="translate(-6.359 -54.631)" fill="#5dd2e4"/>
      </g>
    </g>
    <g id="Grupo_1205320" data-name="Grupo 1205320" transform="translate(439.296 4888.667)">
      <g id="Grupo_1205319" data-name="Grupo 1205319" clip-path="url(#clip-path-3)">
        <path id="Trazado_1261461" data-name="Trazado 1261461" d="M35.752,5.334,0,56.5v4.1L36.858,7.854a9.146,9.146,0,0,0-1.105-2.52" transform="translate(0 -2.723)" fill="#ebcc30"/>
        <path id="Trazado_1261462" data-name="Trazado 1261462" d="M37.253,34.463,0,87.778v4.1L37.253,38.564Z" transform="translate(0 -17.592)" fill="#ebcc30"/>
        <path id="Trazado_1261463" data-name="Trazado 1261463" d="M31.837.018,0,45.583v4.1L34.115.86A4.368,4.368,0,0,0,31.837.018" transform="translate(0.001 -0.009)" fill="#ebcc30"/>
        <path id="Trazado_1261464" data-name="Trazado 1261464" d="M26.112,0,0,37.371v4.1L28.978,0Z" transform="translate(0)" fill="#ebcc30"/>
        <path id="Trazado_1261465" data-name="Trazado 1261465" d="M37.253,17.7,0,71.02v4.1L37.253,21.806Z" transform="translate(0 -9.037)" fill="#ebcc30"/>
        <path id="Trazado_1261466" data-name="Trazado 1261466" d="M8.915,0,0,12.76v4.1L11.781,0Z" transform="translate(0)" fill="#ebcc30"/>
        <path id="Trazado_1261467" data-name="Trazado 1261467" d="M5.664,0C2.536,0,0,3.629,0,8.106v.552L6.05,0Z" transform="translate(-0.001)" fill="#ebcc30"/>
        <path id="Trazado_1261468" data-name="Trazado 1261468" d="M14.648,0,0,20.963v4.1L17.514,0Z" transform="translate(0)" fill="#ebcc30"/>
        <path id="Trazado_1261469" data-name="Trazado 1261469" d="M20.38,0,0,29.167v4.1L23.246,0Z" transform="translate(0)" fill="#ebcc30"/>
        <path id="Trazado_1261470" data-name="Trazado 1261470" d="M53.376,118.1,24.5,159.416h2.866l26-37.218Z" transform="translate(-16.123 -60.285)" fill="#ebcc30"/>
        <path id="Trazado_1261471" data-name="Trazado 1261471" d="M64.4,134.855,41.264,167.971H44.13L64.4,138.957Z" transform="translate(-27.15 -68.839)" fill="#ebcc30"/>
        <path id="Trazado_1261472" data-name="Trazado 1261472" d="M75.429,151.614,58.023,176.525h2.866l14.54-20.81Z" transform="translate(-38.176 -77.394)" fill="#ebcc30"/>
        <path id="Trazado_1261473" data-name="Trazado 1261473" d="M91.818,193.635c3.128,0,5.663-3.629,5.663-8.105v-.4l-5.942,8.5Z" transform="translate(-60.228 -94.504)" fill="#ebcc30"/>
        <path id="Trazado_1261474" data-name="Trazado 1261474" d="M86.455,168.372,74.781,185.08h2.866l8.808-12.606Z" transform="translate(-49.202 -85.949)" fill="#ebcc30"/>
        <path id="Trazado_1261475" data-name="Trazado 1261475" d="M37.253,67.821,0,121.136v4.1L37.253,71.923Z" transform="translate(0 -34.62)" fill="#ebcc30"/>
        <path id="Trazado_1261476" data-name="Trazado 1261476" d="M37.253,51.062,0,104.378v4.1L37.253,55.164Z" transform="translate(0 -26.066)" fill="#ebcc30"/>
        <path id="Trazado_1261477" data-name="Trazado 1261477" d="M38.072,84.579,1.245,137.285a9.034,9.034,0,0,0,1.127,2.488l35.7-51.093Z" transform="translate(-0.819 -43.175)" fill="#ebcc30"/>
        <path id="Trazado_1261478" data-name="Trazado 1261478" d="M43.425,101.338,9.38,150.062a4.319,4.319,0,0,0,2.311.794L43.425,105.44Z" transform="translate(-6.172 -51.73)" fill="#ebcc30"/>
      </g>
    </g>
    <circle id="Elipse_13717" data-name="Elipse 13717" cx="74" cy="74" r="74" transform="translate(311.711 4838)" fill="#9db7fe"/>
    <g id="Enmascarar_grupo_1119242" data-name="Enmascarar grupo 1119242" transform="translate(29.25 26.25)" clip-path="url(#clip-path-4)">
      <g id="Grupo_1205420" data-name="Grupo 1205420" transform="translate(306.172 4833.751)">
        <path id="Trazado_1261897" data-name="Trazado 1261897" d="M135.253,0l-.3.3Z" transform="translate(-95.082)" fill="#9aaab6"/>
        <g id="Grupo_1205419" data-name="Grupo 1205419" transform="translate(0 -0.001)">
          <g id="Grupo_1205418" data-name="Grupo 1205418" clip-path="url(#clip-path-5)">
            <path id="Trazado_1261898" data-name="Trazado 1261898" d="M22.92,61.768,27.3,60.83c-.163-1.316,2.138-4.586,2.061-5.37-.087-.88-2.218-2.866-1.969-3.824.15-.577,7.84-8.325,8.425-8.438.774-.15,2.74,2.167,4.023,1.974a51.244,51.244,0,0,0,4.97-2.141c.5-.6.808-3.127.863-4.012l12.535-.013c.3.048.353,3.709,1.36,4.285.313.179,4.6,1.908,4.864,1.908,1.117,0,3.08-2.14,3.8-2,.62.12,2,2.41,2.661,2.3l8.133-9.937c-.437-1.3-1.548-2.259-2.09-3.724-.369-1-.394-3.116-1.333-3.395l-13.53-.653c-1.876-.115-12.69-1.307-13.465-.754-2.648,10.688-17.913,11.9-21.693,1.342C23.069,17.626,35.63,8.439,44.493,15.523c2.784,2.225,3.6,4.864,4.623,8.143l27.1,1.426c.3-.1,1.256-2.882,1.71-3.608,4.647-7.424,16.209-6.609,19.806,1.372A11.391,11.391,0,0,1,86.078,38.941c-1.618-.2-3.049-1.11-4.608-1.359L73.479,47.795c-.288,1.074,2.933,2.9,3.177,3.841.249.958-1.882,2.944-1.969,3.824-.077.783,2.223,4.053,2.061,5.37l4.379.938v9.455h12.41l7.682,15.955H93.833v26H10.215v-26H2.828L10.51,71.223H22.92ZM37.047,16.334c-11.842.838-8.591,19.412,3.008,15.738,8.874-2.812,6.248-16.393-3.008-15.738M86.673,19.59c-12.187,1.454-7.308,20.322,4.114,15.347,8.4-3.659,4.58-16.385-4.114-15.347M26.17,64.427v6.8h6.8a19.34,19.34,0,1,1,38.116,0h6.8v-6.8c-.7-.346-3.45-.562-3.774-.955-.184-.222-.737-2.837-1.023-3.555-.41-1.029-1.922-3.492-2-4.236-.139-1.418,1.579-2.679,1.427-3.474-.067-.348-4.718-4.933-5.068-4.879-.652.1-2.1,1.926-3.232,1.684-.509-.109-2.6-1.51-3.476-1.865-.719-.291-4.234-1.21-4.37-1.395a27.146,27.146,0,0,1-.661-3.472l-7.2-.03c-.313.053-.563,3.338-.94,3.595-.474.323-3.3.918-4.249,1.3-.747.3-3.359,1.891-3.694,1.9-.982.034-2.449-1.634-3.013-1.722-.35-.055-5,4.532-5.068,4.879-.152.8,1.566,2.056,1.427,3.474-.073.744-1.586,3.206-2,4.236-.286.718-.839,3.333-1.023,3.555-.325.393-3.071.609-3.774.955m41.661,6.8a16.129,16.129,0,1,0-31.615,0h6.5c-1.425-5.207,1.16-11.048,6.5-12.558,7.878-2.228,14.144,4.915,12.115,12.558ZM51.217,61.547A6.5,6.5,0,0,0,45.7,66.669c-.2,1.425-.225,4.354,1.581,4.571,1.068.128,9.777.1,10.214-.162a3.932,3.932,0,0,0,.743-1.325,6.478,6.478,0,0,0-7.019-8.206m-2,12.927H12.579L8.146,83.928H44.785Zm42.252,0H58.081l4.432,9.455H95.9ZM51.876,109.93v-32.8L46.853,87.178H13.465V109.93Zm8.569-22.751L55.422,77.132v32.8H90.583V87.178Z" transform="translate(-1.992 -9.18)" fill="#0e0d0a"/>
            <path id="Trazado_1261899" data-name="Trazado 1261899" d="M261.828,127.568v-9.307c0-2.366,3.365-5.873,5.669-6.445,1.892-.47,8.042-.4,10.151-.215,5.167.46,8.1,6.325,6.28,11.031-.647,1.668-3.923,4.936-5.7,4.936Zm3.25-3.25h12.557a15.208,15.208,0,0,0,2.217-1.329c2.275-2.213,1.575-6.875-1.558-7.9-1.2-.393-8.4-.435-9.751-.16s-3.466,2.638-3.466,3.921Z" transform="translate(-184.466 -78.526)" fill="#0b0c0c"/>
            <path id="Trazado_1261900" data-name="Trazado 1261900" d="M22.7,105.591H6.006a17.469,17.469,0,0,1-3.69-2.219A8.148,8.148,0,0,1,3.881,90.76c2.561-1.611,11.684-1.642,14.359-.357,1.77.85,4.461,3.894,4.461,5.88Zm-3.25-3.25V96.874a6.7,6.7,0,0,0-2.261-3.353c-1.515-.891-7.472-.83-9.422-.647a4.786,4.786,0,0,0-3.514,7.673A6.733,6.733,0,0,0,6.6,102.341Z" transform="translate(0 -63.049)" fill="#0b0c0c"/>
            <path id="Trazado_1261901" data-name="Trazado 1261901" d="M185.851,240.027h30.138v22.751H180.828v-32.8Zm27.183,9.75H196.783v3.25h16.251Zm-13,6.5h-3.253v3.253h3.253Zm6.5,0h-3.253v3.253h3.253Zm6.5,0h-3.549v3.253h3.549Z" transform="translate(-127.399 -162.029)" fill="#c38960"/>
            <path id="Trazado_1261902" data-name="Trazado 1261902" d="M77.239,262.778H38.828V240.027H72.216l5.023-10.046Zm-2.955-19.5H42.226a2.965,2.965,0,0,0-.443.443v15.364a2.965,2.965,0,0,0,.443.443H74.284Z" transform="translate(-27.356 -162.029)" fill="#c2895f"/>
            <path id="Trazado_1261903" data-name="Trazado 1261903" d="M81.828,134.1c.7-.346,3.45-.562,3.774-.955.184-.222.737-2.837,1.023-3.555.41-1.029,1.922-3.492,2-4.236.139-1.418-1.579-2.679-1.427-3.474.066-.347,4.719-4.934,5.068-4.879.564.088,2.031,1.756,3.013,1.722.335-.012,2.947-1.6,3.694-1.9.949-.384,3.775-.98,4.249-1.3.378-.257.627-3.542.94-3.595l7.2.03a27.145,27.145,0,0,0,.661,3.472c.136.185,3.651,1.1,4.37,1.395.876.355,2.967,1.756,3.476,1.865,1.133.242,2.58-1.585,3.232-1.684.351-.053,5,4.531,5.068,4.879.152.8-1.566,2.056-1.427,3.474.073.744,1.586,3.206,2,4.236.286.718.839,3.333,1.023,3.555.325.393,3.071.609,3.774.955v6.8h-6.8a19.34,19.34,0,1,0-38.116,0h-6.8Z" transform="translate(-57.65 -78.854)" fill="#ffb515"/>
            <path id="Trazado_1261904" data-name="Trazado 1261904" d="M61.9,220.981l-4.432,9.455H20.828l4.432-9.455Z" transform="translate(-14.674 -155.688)" fill="#a46434"/>
            <path id="Trazado_1261905" data-name="Trazado 1261905" d="M223.216,220.981l4.432,9.455H194.26l-4.432-9.455Z" transform="translate(-133.74 -155.688)" fill="#a46434"/>
            <path id="Trazado_1261906" data-name="Trazado 1261906" d="M146.724,163.81h-6.5c2.029-7.643-4.236-14.786-12.115-12.558-5.34,1.51-7.924,7.351-6.5,12.558h-6.5a16.129,16.129,0,1,1,31.615,0" transform="translate(-80.885 -101.767)" fill="#ffca57"/>
            <path id="Trazado_1261907" data-name="Trazado 1261907" d="M100.9,24.155c9.256-.655,11.882,12.926,3.008,15.738-11.6,3.675-14.85-14.9-3.008-15.738m-.315,3.251c-5.933.949-5.04,10.345,1.372,9.664,6.5-.69,5.014-10.685-1.372-9.664" transform="translate(-65.843 -17.002)" fill="#abc568"/>
            <path id="Trazado_1261908" data-name="Trazado 1261908" d="M269.644,35.087c8.695-1.038,12.517,11.689,4.114,15.348-11.423,4.974-16.3-13.893-4.114-15.348m-.006,3.245c-6.985,1.119-4,12.333,2.932,9.141,5-2.3,2.559-10.021-2.932-9.141" transform="translate(-184.964 -24.678)" fill="#abc568"/>
            <rect id="Rectángulo_456508" data-name="Rectángulo 456508" width="16.251" height="3.25" transform="translate(69.385 87.749)" fill="#090807"/>
            <rect id="Rectángulo_456509" data-name="Rectángulo 456509" width="3.549" height="3.253" transform="translate(82.088 94.248)" fill="#121213"/>
            <rect id="Rectángulo_456510" data-name="Rectángulo 456510" width="3.253" height="3.253" transform="translate(69.383 94.248)" fill="#090807"/>
            <rect id="Rectángulo_456511" data-name="Rectángulo 456511" width="3.253" height="3.253" transform="translate(75.883 94.248)" fill="#0e0d0a"/>
            <path id="Trazado_1261909" data-name="Trazado 1261909" d="M81.33,274.981v16.251H49.271a2.965,2.965,0,0,1-.443-.443V275.424a2.965,2.965,0,0,1,.443-.443Zm-3.25,3.25h-26v9.75h26Z" transform="translate(-34.401 -193.732)" fill="#0c0a08"/>
            <path id="Trazado_1261910" data-name="Trazado 1261910" d="M108.079,35.039c6.385-1.021,7.872,8.974,1.372,9.664-6.412.681-7.3-8.715-1.372-9.664m.585,3.229a1.626,1.626,0,1,0,.508,3.213c1.906-.27,1.558-3.534-.508-3.213" transform="translate(-73.34 -24.635)" fill="#0b0e06"/>
            <path id="Trazado_1261911" data-name="Trazado 1261911" d="M277.082,46.048c5.492-.88,7.935,6.837,2.932,9.141-6.929,3.192-9.917-8.022-2.932-9.141m.585,3.23a1.6,1.6,0,0,0,.229,3.178c2.2,0,1.94-3.508-.229-3.178" transform="translate(-192.408 -32.393)" fill="#0b0e06"/>
            <rect id="Rectángulo_456512" data-name="Rectángulo 456512" width="3.253" height="3.253" transform="translate(83.861 39.29)" fill="#121213"/>
            <rect id="Rectángulo_456513" data-name="Rectángulo 456513" width="3.253" height="3.253" transform="translate(90.361 39.29)" fill="#121213"/>
            <rect id="Rectángulo_456514" data-name="Rectángulo 456514" width="3.253" height="3.253" transform="translate(12.948 33.086)" fill="#121213"/>
            <rect id="Rectángulo_456515" data-name="Rectángulo 456515" width="3.253" height="3.253" transform="translate(6.448 33.086)" fill="#121213"/>
            <path id="Trazado_1261912" data-name="Trazado 1261912" d="M85.829,295.732h-26v-9.751h26Zm-16.249-6.5H66.327v3.253H69.58Zm6.5,0H72.827v3.253H76.08Zm6.5,0H79.328v3.253h3.253Z" transform="translate(-42.151 -201.482)" fill="#ffca57"/>
            <path id="Trazado_1261913" data-name="Trazado 1261913" d="M116.226,46.091c2.066-.321,2.413,2.943.508,3.213a1.626,1.626,0,1,1-.508-3.213" transform="translate(-80.902 -32.457)" fill="#fab214"/>
            <path id="Trazado_1261914" data-name="Trazado 1261914" d="M285.416,57.094c2.169-.33,2.428,3.178.229,3.178a1.6,1.6,0,0,1-.229-3.178" transform="translate(-200.157 -40.209)" fill="#fab214"/>
            <rect id="Rectángulo_456516" data-name="Rectángulo 456516" width="3.253" height="3.253" transform="translate(24.176 87.747)" fill="#090807"/>
            <rect id="Rectángulo_456517" data-name="Rectángulo 456517" width="3.253" height="3.253" transform="translate(30.677 87.747)" fill="#090807"/>
            <rect id="Rectángulo_456518" data-name="Rectángulo 456518" width="3.253" height="3.253" transform="translate(37.177 87.747)" fill="#090807"/>
          </g>
        </g>
      </g>
    </g>
  </g>
</svg>
